<svg width="48" height="48" viewBox="0 0 48 48" fill="none" xmlns="http://www.w3.org/2000/svg">
<rect width="13.4932" height="13.4928" rx="4" transform="matrix(0.889344 0.457241 -0.889344 0.457241 24.7278 35.6609)" fill="#C4C4C4"/>
<rect x="22.274" y="25.1724" width="4.24267" height="16.7815" rx="2.12133" fill="#797979"/>
<rect width="26.9863" height="26.9855" rx="4" transform="matrix(0.889344 0.457241 -0.889344 0.457241 23.9994 4.36255)" fill="white"/>
<rect width="26.9863" height="26.9855" rx="4" transform="matrix(0.889344 0.457241 -0.889344 0.457241 23.9998 0)" fill="#DC2625"/>
<path d="M27.9293 19.9085C27.751 19.9836 27.5686 20.019 27.3822 20.0148C27.1876 20.0148 27.0133 19.9752 26.8593 19.896C26.7783 19.8544 26.7134 19.8085 26.6648 19.7585C26.3892 19.7418 26.1136 19.696 25.838 19.621C25.5624 19.546 25.2989 19.4772 25.0476 19.4147C24.8288 19.2938 24.6261 19.1688 24.4397 19.0396C24.2533 18.9104 24.0344 18.7895 23.7831 18.677C23.7588 18.6062 23.7101 18.5437 23.6372 18.4895C23.5642 18.4353 23.4832 18.3811 23.394 18.3269C23.3048 18.2811 23.2278 18.229 23.163 18.1707C23.1063 18.1165 23.0819 18.0456 23.09 17.9581L22.4821 17.6456C22.4253 17.6164 22.3686 17.558 22.3119 17.4705C22.2551 17.3913 22.1862 17.3017 22.1052 17.2017C22.0322 17.1059 21.943 17.0058 21.8377 16.9016C21.7404 16.8016 21.6269 16.7183 21.4972 16.6516L21.4243 16.6141C21.408 16.5307 21.3594 16.4474 21.2783 16.364C21.1973 16.289 21.1122 16.2119 21.023 16.1327C20.9257 16.0577 20.8366 15.9827 20.7555 15.9077C20.6745 15.8327 20.6218 15.7597 20.5974 15.6889C20.5731 15.618 20.5366 15.5409 20.488 15.4576C20.4475 15.3701 20.3664 15.2992 20.2448 15.245C20.18 15.12 20.0949 14.9971 19.9895 14.8762C19.8922 14.7595 19.7868 14.6428 19.6734 14.5261L19.3572 14.1761C19.26 14.0594 19.1748 13.9364 19.1019 13.8072C19.0695 13.7989 19.0411 13.7843 19.0168 13.7635C18.9925 13.7426 18.9681 13.726 18.9438 13.7135C18.8952 13.6885 18.8506 13.6822 18.8101 13.6947C18.8101 13.6364 18.7939 13.578 18.7614 13.5197C18.7371 13.4655 18.7209 13.4071 18.7128 13.3446C18.6723 13.3321 18.6317 13.3196 18.5912 13.3071C18.5669 13.2946 18.5345 13.2779 18.4939 13.2571C18.421 13.2196 18.3561 13.1779 18.2994 13.1321C18.2508 13.0904 18.2062 13.0466 18.1656 13.0008C17.9306 13.0466 17.6996 13.1154 17.4726 13.2071C17.2456 13.2988 17.0146 13.3967 16.7795 13.5009C16.5607 13.6051 16.3377 13.7072 16.1108 13.8072C15.8757 13.9114 15.6406 13.9948 15.4056 14.0573C15.3569 14.099 15.3002 14.1365 15.2353 14.1698L15.0286 14.2761C14.8908 14.3469 14.8017 14.4136 14.7611 14.4761C14.672 14.5053 14.5868 14.5324 14.5058 14.5574C14.4328 14.5866 14.3558 14.6136 14.2748 14.6387C14.1937 14.6887 14.1167 14.7324 14.0437 14.7699C13.9708 14.8158 13.8897 14.8616 13.8006 14.9075L13.5939 15.0137C13.5209 15.0512 13.4398 15.0846 13.3507 15.1138C13.221 15.0971 13.0953 15.0783 12.9738 15.0575C12.8441 15.0408 12.7063 15.0283 12.5603 15.02C12.609 14.9366 12.5725 14.8554 12.4509 14.7762C12.378 14.7804 12.301 14.7949 12.2199 14.8199C12.1388 14.8533 12.0659 14.8533 12.001 14.8199C11.9767 14.7158 11.9564 14.6303 11.9402 14.5636C11.924 14.497 11.9281 14.4115 11.9524 14.3073C11.9605 14.2948 11.9767 14.2823 12.001 14.2698C12.0416 14.249 12.0861 14.2344 12.1348 14.2261C12.1834 14.2177 12.2239 14.2052 12.2564 14.1886C12.3536 14.1385 12.4266 14.0885 12.4752 14.0385C12.5644 13.976 12.6576 13.9156 12.7549 13.8572C12.8441 13.8031 12.9373 13.751 13.0345 13.701C13.1723 13.6301 13.3142 13.5655 13.4601 13.5072C13.6141 13.453 13.7884 13.4051 13.9829 13.3634C14.3072 13.2884 14.6152 13.1925 14.907 13.0758C15.207 12.9633 15.4947 12.8445 15.7703 12.7195C16.054 12.5903 16.3296 12.4569 16.5971 12.3194C16.8727 12.186 17.1443 12.0631 17.4118 11.9506C17.4847 11.8547 17.5172 11.7672 17.5091 11.688C17.5172 11.6088 17.6063 11.5255 17.7766 11.438C17.9306 11.3588 18.0967 11.3234 18.2751 11.3317C18.4615 11.3359 18.652 11.3254 18.8465 11.3004C18.879 11.2671 18.9236 11.2567 18.9803 11.2692L20.4029 10.6878C20.5002 10.6461 20.6096 10.6024 20.7312 10.5565C20.8609 10.5149 20.9744 10.4732 21.0716 10.4315C21.2743 10.344 21.4648 10.2544 21.6431 10.1627C21.8215 10.071 22.0079 9.98349 22.2024 9.90013C22.6402 9.71676 23.0698 9.53339 23.4913 9.35002C23.9209 9.17081 24.3303 8.98119 24.7193 8.78114C24.9058 8.68529 25.0841 8.58527 25.2543 8.48108C25.4327 8.38106 25.5948 8.2727 25.7407 8.15601C25.5624 8.106 25.3638 8.04974 25.1449 7.98722C24.9423 7.92471 24.7315 7.89137 24.5126 7.8872L24.4154 7.83719C24.2046 7.72883 23.9655 7.64757 23.698 7.59339C23.4386 7.54338 23.1792 7.4892 22.9198 7.43085C22.7982 7.41002 22.6888 7.38293 22.5915 7.34959C22.5024 7.31208 22.401 7.27665 22.2875 7.24331C22.2389 7.22664 22.17 7.21622 22.0808 7.21206C21.9917 7.20789 21.9187 7.19955 21.862 7.18705L21.6066 7.10578C21.5337 7.08495 21.4729 7.0912 21.4243 7.12454C21.3756 7.15788 21.3189 7.16621 21.254 7.14954C21.173 7.14954 21.096 7.13079 21.023 7.09328C20.9582 7.05161 20.9055 7.02035 20.8649 6.99951L20.8163 6.97451C20.4677 6.94533 20.1476 6.90991 19.8557 6.86823C19.5639 6.81822 19.2721 6.73487 18.9803 6.61818L18.5426 6.56817C18.3967 6.5515 18.267 6.51399 18.1535 6.45564C18.0643 6.4098 18.0076 6.36396 17.9833 6.31811C18.0157 6.23476 18.0765 6.1535 18.1656 6.07431C18.2467 5.99096 18.2872 5.90344 18.2872 5.81175C18.3683 5.81175 18.4494 5.79925 18.5304 5.77425C18.6115 5.74091 18.6885 5.71382 18.7614 5.69298C19.11 5.76383 19.4586 5.83884 19.8071 5.91803C20.1476 5.99304 20.5002 6.05347 20.8649 6.09932C20.8812 6.11599 20.9136 6.13682 20.9622 6.16183C21.0433 6.20351 21.1284 6.23476 21.2176 6.2556C21.3067 6.27644 21.3999 6.29519 21.4972 6.31186C21.5945 6.32853 21.6877 6.34729 21.7769 6.36812C21.866 6.38896 21.9511 6.42439 22.0322 6.4744C22.4618 6.53691 22.8793 6.62235 23.2846 6.7307C23.6899 6.83906 24.1154 6.92033 24.5613 6.97451C24.6018 6.99534 24.6261 7.01618 24.6342 7.03702C24.6504 7.06202 24.6748 7.08286 24.7072 7.09953C24.7396 7.1162 24.7639 7.12454 24.7801 7.12454C24.8936 7.1162 25.0031 7.12662 25.1084 7.15579C25.2219 7.1808 25.3273 7.20997 25.4246 7.24331C25.5381 7.27665 25.6475 7.30374 25.7529 7.32458C25.8745 7.34542 25.9879 7.34125 26.0933 7.31208C26.1014 7.34959 26.146 7.38918 26.2271 7.43085C26.3649 7.5017 26.5189 7.55171 26.6891 7.58089C26.8674 7.61423 27.0255 7.66632 27.1633 7.73717C27.1957 7.75384 27.216 7.77259 27.2241 7.79343C27.2484 7.81427 27.2768 7.83302 27.3092 7.84969C27.3741 7.88303 27.4267 7.88929 27.4673 7.86845C27.5159 7.85178 27.5767 7.84553 27.6497 7.84969C28.2333 8.05807 28.8048 8.26853 29.3641 8.48108C29.9315 8.69779 30.4665 8.93534 30.9691 9.19373C31.0907 9.20624 31.196 9.23541 31.2852 9.28125C31.3744 9.32709 31.4311 9.38127 31.4554 9.44379C31.6094 9.5063 31.7594 9.5709 31.9053 9.63758C32.0512 9.70426 32.1931 9.77302 32.3309 9.84387C32.647 10.0064 32.951 10.1835 33.2428 10.3752C33.5346 10.5669 33.7981 10.7691 34.0331 10.9816C34.2844 11.1942 34.4871 11.415 34.6411 11.6443C34.8032 11.8693 34.9167 12.0985 34.9815 12.3319C34.9329 12.3819 34.8924 12.4361 34.86 12.4944C34.8275 12.5528 34.8235 12.6091 34.8478 12.6632C34.8316 12.6716 34.8154 12.6757 34.7992 12.6757C34.791 12.6799 34.7789 12.6862 34.7627 12.6945C34.6735 12.7403 34.6127 12.7966 34.5803 12.8633C34.556 12.9341 34.4871 12.9987 34.3736 13.0571C34.2601 13.1154 34.1264 13.1633 33.9723 13.2008C33.8264 13.2425 33.7008 13.2946 33.5954 13.3571C33.3766 13.378 33.182 13.3988 33.0118 13.4196C32.8497 13.4446 32.6794 13.4947 32.5011 13.5697C32.2093 13.5697 31.9175 13.5863 31.6257 13.6197C31.3419 13.6489 31.0542 13.6759 30.7624 13.701C30.4868 13.726 30.2071 13.7364 29.9234 13.7322C29.6397 13.728 29.356 13.6947 29.0723 13.6322C28.9831 13.6697 28.8615 13.6989 28.7075 13.7197L28.4522 13.5884C28.363 13.6093 28.2738 13.6134 28.1847 13.6009L27.9172 13.5634C27.828 13.5509 27.7388 13.5468 27.6497 13.5509C27.5686 13.5593 27.4835 13.5863 27.3943 13.6322C27.3862 13.6197 27.37 13.6072 27.3457 13.5947C27.2646 13.553 27.1268 13.5238 26.9323 13.5072C26.7458 13.4947 26.5959 13.4842 26.4824 13.4759C26.2473 13.4551 26.0163 13.428 25.7893 13.3946C25.5705 13.3655 25.3354 13.3613 25.0841 13.3821C24.6221 13.2863 24.1519 13.2113 23.6737 13.1571C23.2035 13.0987 22.7455 13.0091 22.2997 12.8883C22.0322 12.8924 21.7688 12.8695 21.5094 12.8195C21.2662 12.7695 21.019 12.7257 20.7677 12.6882L20.7312 12.707C20.6663 12.7403 20.6258 12.7862 20.6096 12.8445C20.6015 12.8987 20.6056 12.955 20.6218 13.0133C20.6461 13.0675 20.6866 13.1175 20.7434 13.1633C20.8082 13.2133 20.8771 13.2488 20.9501 13.2696C20.9663 13.428 21.0352 13.5843 21.1568 13.7385C21.2783 13.8927 21.4162 14.0469 21.5702 14.2011C21.7242 14.3553 21.8701 14.5095 22.0079 14.6637C22.1457 14.8179 22.247 14.9741 22.3119 15.1325L22.6037 15.2825C22.628 15.4617 22.7253 15.6368 22.8955 15.8077C23.0738 15.9827 23.2481 16.1473 23.4183 16.3015C23.4264 16.3974 23.4791 16.4953 23.5764 16.5953C23.6899 16.6953 23.8155 16.7808 23.9533 16.8516L24.0263 16.8891C24.0587 16.9058 24.0911 16.9183 24.1236 16.9266L24.0992 16.9391C24.0587 16.96 24.0425 16.9808 24.0506 17.0017C24.0668 17.0183 24.083 17.035 24.0992 17.0517C24.1317 17.0683 24.1519 17.0871 24.16 17.1079C24.1843 17.1288 24.1925 17.1496 24.1843 17.1704L24.3059 17.233C24.4762 17.3205 24.6018 17.4226 24.6829 17.5393C24.772 17.6518 24.9017 17.7518 25.072 17.8393C25.1449 17.8769 25.2098 17.9019 25.2665 17.9144C25.2989 17.9477 25.303 17.9831 25.2787 18.0206C25.2543 18.0581 25.2462 18.0956 25.2543 18.1332C25.3192 18.1582 25.38 18.1811 25.4367 18.2019C25.4854 18.2269 25.534 18.2519 25.5826 18.2769C25.761 18.3686 25.9069 18.4645 26.0204 18.5645C26.1338 18.6645 26.2311 18.777 26.3122 18.9021C26.6851 18.9771 27.0336 19.0604 27.3578 19.1521C27.6821 19.2438 27.9861 19.3626 28.2698 19.5085L28.2455 19.521C28.1482 19.571 28.0833 19.6293 28.0509 19.696C28.0185 19.771 27.978 19.8419 27.9293 19.9085ZM32.9753 12.5257C33.0726 12.4757 33.1293 12.4257 33.1455 12.3757C33.1698 12.3298 33.1739 12.2819 33.1577 12.2319C33.1496 12.1777 33.1334 12.1235 33.1091 12.0694C33.0928 12.0193 33.0928 11.9652 33.1091 11.9068C32.9631 11.7651 32.8294 11.6213 32.7078 11.4755C32.5862 11.3296 32.4484 11.1879 32.2944 11.0504C32.2133 10.9837 32.1282 10.9191 32.0391 10.8566C31.958 10.7899 31.8648 10.7295 31.7594 10.6753L31.4919 10.5378C31.4514 10.5086 31.4068 10.4773 31.3582 10.444C31.3257 10.4107 31.2893 10.3794 31.2487 10.3502C31.1515 10.2836 31.0501 10.219 30.9448 10.1564C30.8475 10.0981 30.7421 10.0397 30.6286 9.9814C30.4179 9.87305 30.199 9.76886 29.972 9.66884L29.2911 9.36877C29.1939 9.32709 29.0966 9.28125 28.9993 9.23124C28.902 9.18123 28.8048 9.13955 28.7075 9.10621C28.6589 9.08954 28.5819 9.07079 28.4765 9.04995C28.3792 9.02495 28.2738 8.99994 28.1603 8.97494C28.055 8.94576 27.9455 8.91867 27.832 8.89367C27.7267 8.87283 27.6375 8.85199 27.5646 8.83115C27.5159 8.8645 27.4632 8.89575 27.4065 8.92492L27.2484 9.00619C27.1268 9.06871 27.0012 9.12914 26.8715 9.18748C26.7418 9.24583 26.604 9.30001 26.4581 9.35002C26.4013 9.37085 26.3405 9.38961 26.2757 9.40628C26.2108 9.42295 26.1501 9.4417 26.0933 9.46254C26.0041 9.49171 25.915 9.52922 25.8258 9.57506L25.5948 9.69384C25.3921 9.78136 25.1976 9.86888 25.0112 9.9564C24.8247 10.0439 24.6302 10.1314 24.4275 10.219C23.8439 10.469 23.2603 10.7149 22.6766 10.9566C22.1011 11.2025 21.5377 11.4588 20.9865 11.7255C21.3108 11.8339 21.6512 11.9214 22.0079 11.9881C22.3646 12.0548 22.7253 12.1152 23.09 12.1694C23.4629 12.2194 23.8317 12.2715 24.1965 12.3257C24.5613 12.3798 24.9179 12.4507 25.2665 12.5382C25.4205 12.5257 25.5705 12.5278 25.7164 12.5445C25.8704 12.5653 26.0244 12.5695 26.1784 12.557C26.2595 12.5986 26.3365 12.6216 26.4094 12.6257C26.4905 12.6257 26.5716 12.6382 26.6526 12.6632C27.3822 12.6882 28.0995 12.7278 28.8048 12.782C29.51 12.8362 30.2193 12.8716 30.9326 12.8883C31.0785 12.8466 31.2406 12.8174 31.419 12.8008C31.6135 12.7841 31.804 12.7653 31.9904 12.7445C32.1769 12.7237 32.3552 12.6987 32.5254 12.6695C32.6956 12.6403 32.8456 12.5924 32.9753 12.5257Z" fill="white"/>
</svg>
